<svg xmlns="http://www.w3.org/2000/svg" xmlns:xlink="http://www.w3.org/1999/xlink" version="1.1" viewBox="69.7 94.88 333.88 335.4">
<g id="surface1">
<path style=" stroke:none;fill-rule:nonzero;fill:rgb(100%,100%,100%);fill-opacity:1;" d="M 171.671875 369.238281 L 170.867188 370.964844 C 175.761719 374.164062 180.898438 377.019531 186.238281 379.5 L 186.277344 376.027344 C 181.277344 373.960938 176.4375 371.574219 171.792969 368.886719 C 171.765625 369.003906 171.722656 369.121094 171.671875 369.238281 "/>
<path style=" stroke:none;fill-rule:nonzero;fill:rgb(100%,100%,100%);fill-opacity:1;" d="M 142.214844 345.019531 C 145.097656 348.59375 148.175781 352.003906 151.429688 355.230469 L 155.613281 357.714844 C 150.839844 353.824219 146.359375 349.578125 142.214844 345.019531 "/>
<path style=" stroke:none;fill-rule:nonzero;fill:rgb(100%,100%,100%);fill-opacity:1;" d="M 348.582031 219.765625 C 349.046875 218.714844 349.496094 217.648438 349.917969 216.566406 "/>
<path style=" stroke:none;fill-rule:nonzero;fill:rgb(100%,100%,100%);fill-opacity:1;" d="M 240.710938 109.667969 C 234.851562 109.199219 228.90625 109.066406 222.894531 109.289062 C 228.550781 109.273438 234.195312 109.605469 239.792969 110.269531 C 240.101562 110.070312 240.40625 109.867188 240.710938 109.667969 "/>
<path style=" stroke:none;fill-rule:nonzero;fill:rgb(100%,100%,100%);fill-opacity:1;" d="M 266.773438 114.078125 C 266.761719 114.746094 266.753906 115.4375 266.75 116.140625 C 267.738281 116.453125 268.722656 116.78125 269.703125 117.117188 C 270.527344 116.707031 271.480469 116.234375 272.546875 115.710938 C 270.636719 115.128906 268.710938 114.582031 266.773438 114.078125 "/>
<path style=" stroke:none;fill-rule:nonzero;fill:rgb(100%,100%,100%);fill-opacity:1;" d="M 355.800781 178.777344 C 355.855469 180.425781 355.875 182.09375 355.851562 183.78125 C 355.820312 186.148438 355.714844 188.472656 355.539062 190.757812 C 357.925781 195.183594 360.128906 199.761719 362.132812 204.492188 C 362.777344 206.015625 363.394531 207.539062 363.988281 209.070312 L 369.839844 206.582031 C 366.105469 196.769531 361.378906 187.464844 355.800781 178.777344 "/>
<path style=" stroke:none;fill-rule:nonzero;fill:rgb(100%,100%,100%);fill-opacity:1;" d="M 279.945312 141.628906 C 278.546875 142.289062 277.261719 143.089844 276.085938 144.035156 C 291.671875 147.867188 306.199219 154.699219 318.949219 163.945312 C 318.851562 163.539062 318.746094 163.136719 318.636719 162.734375 C 307.179688 153.5 294.085938 146.304688 279.945312 141.628906 "/>
<path style=" stroke:none;fill-rule:nonzero;fill:rgb(100%,100%,100%);fill-opacity:1;" d="M 226.609375 142.175781 C 226.359375 141.796875 226.101562 141.417969 225.824219 141.039062 C 225.808594 141.019531 225.792969 141 225.78125 140.976562 C 224.734375 139.417969 223.59375 138.078125 222.355469 136.941406 C 157.921875 147.007812 112.039062 206.125 118.9375 271.914062 C 122.28125 303.800781 137.433594 331.582031 159.574219 351.34375 C 140.347656 332.023438 127.332031 306.226562 124.265625 276.96875 C 117.402344 211.546875 162.742188 152.726562 226.609375 142.175781 "/>
<path style=" stroke:none;fill-rule:nonzero;fill:rgb(100%,100%,100%);fill-opacity:1;" d="M 113.742188 351.917969 C 113.714844 351.210938 113.453125 349.777344 112.375 346.976562 C 111.28125 344.152344 110.847656 342.335938 110.925781 340.894531 C 110.949219 340.492188 111.007812 340.113281 111.085938 339.753906 C 104.417969 329.265625 99.113281 318.191406 95.191406 306.796875 L 89.984375 309.03125 C 92.664062 317.972656 96.210938 326.792969 100.671875 335.378906 C 104.503906 342.75 108.859375 349.667969 113.667969 356.121094 C 113.78125 354.910156 113.804688 353.542969 113.742188 351.917969 "/>
<path style=" stroke:none;fill-rule:nonzero;fill:rgb(100%,100%,100%);fill-opacity:1;" d="M 145.113281 377.996094 C 143.023438 379.324219 141.457031 381.167969 140.492188 383.789062 C 151.066406 392.195312 162.667969 399.082031 174.933594 404.328125 C 177.40625 403.523438 179.464844 402.324219 181.089844 400.742188 C 181.21875 400.617188 181.335938 400.484375 181.460938 400.355469 C 168.699219 394.71875 156.449219 387.261719 145.113281 377.996094 "/>
<path style=" stroke:none;fill-rule:nonzero;fill:rgb(100%,100%,100%);fill-opacity:1;" d="M 218.324219 411.433594 C 217.445312 412.796875 216.488281 414.097656 215.457031 415.332031 C 239.246094 418.34375 263.949219 415.71875 287.492188 406.777344 C 265.410156 413.804688 241.648438 415.363281 218.324219 411.433594 "/>
<path style=" stroke:none;fill-rule:nonzero;fill:rgb(100%,100%,100%);fill-opacity:1;" d="M 362.238281 226.210938 C 362.675781 227.671875 363.558594 227.890625 364.050781 227.890625 C 364.230469 227.890625 364.421875 227.859375 364.609375 227.804688 C 365.1875 227.632812 365.894531 227.132812 366.007812 225.738281 L 366.070312 225.179688 C 366.085938 225.03125 366.109375 224.941406 366.128906 224.890625 L 379.035156 221.046875 L 383.625 236.457031 L 372.320312 239.824219 C 371.320312 240.121094 370.898438 240.167969 370.734375 240.167969 C 370.714844 240.167969 370.699219 240.167969 370.683594 240.164062 C 370.6875 240.164062 370.476562 240.101562 370.0625 239.539062 C 369.5 238.671875 368.832031 238.488281 368.367188 238.488281 C 368.1875 238.488281 368.003906 238.515625 367.820312 238.570312 C 367.085938 238.789062 366.785156 239.277344 366.664062 239.644531 C 366.511719 240.09375 366.53125 240.621094 366.722656 241.261719 L 368.355469 246.734375 C 368.792969 248.207031 369.679688 248.425781 370.171875 248.425781 C 370.351562 248.425781 370.539062 248.398438 370.730469 248.339844 C 371.480469 248.117188 371.78125 247.253906 371.941406 246.625 L 372.050781 246.179688 L 372.152344 245.722656 C 372.21875 245.402344 372.359375 245.246094 372.648438 245.160156 L 397.28125 237.820312 C 398.242188 237.535156 398.675781 237.492188 398.84375 237.492188 C 398.886719 237.492188 398.910156 237.492188 398.921875 237.496094 C 398.925781 237.496094 399.136719 237.53125 399.550781 238.089844 C 400.089844 238.984375 400.761719 239.171875 401.234375 239.171875 C 401.414062 239.171875 401.601562 239.144531 401.789062 239.089844 C 402.519531 238.871094 402.828125 238.398438 402.957031 238.039062 C 403.117188 237.59375 403.101562 237.070312 402.914062 236.4375 L 401.265625 230.90625 C 400.832031 229.449219 399.941406 229.230469 399.449219 229.230469 C 399.265625 229.230469 399.074219 229.257812 398.878906 229.316406 C 398.277344 229.496094 397.894531 229.8125 397.734375 230.257812 C 397.636719 230.527344 397.570312 230.910156 397.519531 231.460938 C 397.519531 231.484375 397.519531 231.511719 397.519531 231.535156 C 397.523438 232.128906 397.414062 232.320312 397.386719 232.355469 L 387.410156 235.328125 L 382.820312 219.917969 L 391.207031 217.421875 C 392.203125 217.125 392.613281 217.078125 392.769531 217.078125 C 392.789062 217.078125 392.800781 217.078125 392.8125 217.082031 C 392.8125 217.082031 393.03125 217.136719 393.496094 217.695312 C 394.007812 218.3125 394.574219 218.625 395.175781 218.625 C 395.339844 218.625 395.507812 218.597656 395.671875 218.550781 C 396.082031 218.429688 397.386719 217.875 396.800781 215.917969 L 395.207031 210.566406 C 394.78125 209.132812 393.96875 208.832031 393.363281 208.832031 C 393.179688 208.832031 392.992188 208.863281 392.800781 208.917969 C 392.238281 209.085938 391.546875 209.59375 391.4375 211.054688 C 391.4375 211.078125 391.4375 211.101562 391.4375 211.125 C 391.445312 211.722656 391.335938 211.917969 391.308594 211.957031 L 366.242188 219.425781 C 365.242188 219.722656 364.820312 219.765625 364.65625 219.765625 C 364.640625 219.765625 364.621094 219.765625 364.605469 219.765625 C 364.609375 219.765625 364.402344 219.703125 363.992188 219.148438 C 363.457031 218.273438 362.785156 218.085938 362.3125 218.085938 C 362.125 218.085938 361.933594 218.113281 361.742188 218.171875 C 361.015625 218.386719 360.714844 218.859375 360.585938 219.214844 C 360.425781 219.65625 360.441406 220.175781 360.628906 220.800781 Z M 362.238281 226.210938 "/>
<path style=" stroke:none;fill-rule:nonzero;fill:rgb(100%,100%,100%);fill-opacity:1;" d="M 372.855469 266.140625 C 375.070312 267.773438 377.667969 268.605469 380.582031 268.605469 C 381.046875 268.605469 381.523438 268.585938 382.003906 268.542969 C 384.1875 268.355469 386.203125 267.691406 387.996094 266.574219 C 389.796875 265.449219 391.195312 263.996094 392.152344 262.257812 C 393.117188 260.496094 393.523438 258.613281 393.351562 256.65625 C 393.1875 254.742188 392.449219 252.964844 391.164062 251.375 C 389.890625 249.800781 388.230469 248.589844 386.234375 247.773438 C 384.617188 247.109375 382.914062 246.777344 381.179688 246.777344 C 380.785156 246.777344 380.378906 246.792969 379.980469 246.828125 C 377.800781 247.015625 375.78125 247.671875 373.980469 248.769531 C 372.171875 249.878906 370.761719 251.3125 369.785156 253.039062 C 368.792969 254.785156 368.378906 256.652344 368.546875 258.589844 C 368.8125 261.679688 370.261719 264.21875 372.855469 266.140625 M 374.273438 253.789062 C 375.808594 252.566406 377.792969 251.839844 380.171875 251.636719 C 380.636719 251.59375 381.097656 251.574219 381.542969 251.574219 C 382.652344 251.574219 383.71875 251.703125 384.710938 251.949219 C 386.054688 252.289062 387.179688 252.890625 388.054688 253.742188 C 388.902344 254.570312 389.371094 255.609375 389.484375 256.929688 C 389.652344 258.855469 389.027344 260.371094 387.570312 261.570312 C 386.050781 262.820312 384.066406 263.558594 381.667969 263.765625 C 381.203125 263.804688 380.75 263.824219 380.316406 263.824219 C 378.441406 263.824219 376.800781 263.449219 375.433594 262.707031 C 373.515625 261.679688 372.503906 260.253906 372.339844 258.34375 C 372.175781 256.445312 372.808594 254.953125 374.273438 253.789062 "/>
<path style=" stroke:none;fill-rule:nonzero;fill:rgb(100%,100%,100%);fill-opacity:1;" d="M 380.25 291.320312 C 380.640625 291.351562 381.035156 291.367188 381.421875 291.367188 C 383.179688 291.367188 384.882812 291.03125 386.488281 290.371094 C 388.449219 289.5625 390.070312 288.363281 391.300781 286.804688 C 392.546875 285.226562 393.257812 283.4375 393.414062 281.480469 C 393.570312 279.566406 393.136719 277.691406 392.132812 275.90625 C 391.136719 274.144531 389.703125 272.675781 387.867188 271.539062 C 386.039062 270.40625 384.019531 269.746094 381.855469 269.570312 C 381.457031 269.539062 381.058594 269.519531 380.667969 269.519531 C 378.917969 269.519531 377.21875 269.847656 375.621094 270.488281 C 373.652344 271.28125 372.023438 272.464844 370.773438 274.003906 C 369.507812 275.5625 368.785156 277.335938 368.628906 279.273438 C 368.378906 282.363281 369.390625 285.109375 371.628906 287.429688 C 373.84375 289.726562 376.746094 291.035156 380.25 291.320312 M 372.414062 279.660156 C 372.566406 277.757812 373.4375 276.394531 375.074219 275.484375 C 376.503906 274.695312 378.183594 274.292969 380.070312 274.292969 C 380.453125 274.292969 380.847656 274.308594 381.25 274.34375 C 382.871094 274.472656 384.359375 274.832031 385.675781 275.40625 C 386.941406 275.960938 387.953125 276.742188 388.671875 277.726562 C 389.375 278.683594 389.664062 279.789062 389.554688 281.105469 C 389.402344 283.03125 388.53125 284.425781 386.898438 285.367188 C 385.472656 286.183594 383.785156 286.601562 381.875 286.601562 C 381.5 286.601562 381.105469 286.585938 380.710938 286.550781 C 378.257812 286.351562 376.246094 285.652344 374.738281 284.472656 C 373.019531 283.140625 372.257812 281.566406 372.414062 279.660156 "/>
<path style=" stroke:none;fill-rule:nonzero;fill:rgb(100%,100%,100%);fill-opacity:1;" d="M 402.929688 298.925781 C 402.824219 298.542969 402.511719 297.488281 401.644531 297.277344 C 401.5625 297.257812 401.476562 297.25 401.390625 297.25 C 400.957031 297.25 400.519531 297.492188 400.015625 298.011719 C 399.984375 298.039062 399.960938 298.070312 399.9375 298.105469 C 399.554688 298.652344 399.230469 298.683594 399.125 298.695312 C 399.074219 298.699219 399.015625 298.699219 398.953125 298.699219 C 398.484375 298.699219 397.75 298.582031 396.765625 298.34375 L 374.433594 292.9375 C 372.347656 292.433594 371.898438 292.128906 371.820312 292.058594 C 371.792969 292.007812 371.714844 291.820312 371.648438 291.339844 C 371.519531 290.507812 371.03125 289.953125 370.273438 289.769531 C 370.105469 289.730469 369.941406 289.710938 369.789062 289.710938 C 369.277344 289.710938 368.363281 289.933594 368.003906 291.421875 L 366.910156 295.941406 C 366.792969 296.417969 366.863281 296.898438 367.109375 297.332031 C 367.363281 297.78125 367.753906 298.082031 368.234375 298.199219 C 368.355469 298.226562 368.480469 298.242188 368.609375 298.242188 C 369.128906 298.242188 369.652344 297.992188 370.167969 297.496094 C 370.199219 297.46875 370.226562 297.4375 370.25 297.402344 C 370.535156 297.019531 370.6875 296.964844 370.6875 296.964844 C 370.726562 296.957031 370.800781 296.941406 370.957031 296.941406 C 371.296875 296.941406 371.992188 297.011719 373.371094 297.34375 L 375.34375 297.824219 L 377.230469 301.105469 C 376.117188 301.6875 374.660156 302.3125 372.890625 302.972656 C 371.230469 303.585938 369.980469 303.902344 369.175781 303.902344 C 369.007812 303.902344 368.867188 303.886719 368.753906 303.859375 C 368.757812 303.859375 368.648438 303.789062 368.515625 303.453125 C 368.148438 302.535156 367.5625 302.21875 367.132812 302.113281 C 366.976562 302.078125 366.828125 302.058594 366.679688 302.058594 C 366.304688 302.058594 365.394531 302.203125 365.066406 303.550781 L 363.96875 308.085938 C 363.835938 308.640625 363.855469 309.074219 364.035156 309.410156 C 364.296875 309.898438 364.863281 310.089844 365.328125 310.203125 C 365.472656 310.238281 365.617188 310.253906 365.761719 310.253906 C 366.300781 310.253906 366.808594 310.015625 367.265625 309.546875 C 367.269531 309.539062 367.277344 309.535156 367.28125 309.527344 C 367.523438 309.265625 367.933594 309.058594 368.503906 308.917969 C 372.753906 307.902344 376.488281 306.5625 379.609375 304.921875 L 379.691406 305.039062 L 381.503906 307.574219 C 381.511719 307.582031 381.519531 307.59375 381.527344 307.601562 C 382.453125 308.777344 383.078125 309.601562 383.378906 310.054688 C 383.640625 310.449219 383.871094 311.035156 384.058594 311.796875 C 384.320312 313.003906 385.027344 313.417969 385.574219 313.550781 C 385.707031 313.582031 385.835938 313.597656 385.960938 313.597656 C 386.398438 313.597656 387.171875 313.410156 387.480469 312.140625 L 388.609375 307.480469 C 388.738281 306.941406 388.695312 306.488281 388.476562 306.128906 C 388.34375 305.914062 388.085938 305.632812 387.59375 305.515625 C 387.453125 305.480469 387.308594 305.460938 387.167969 305.460938 C 386.734375 305.460938 386.3125 305.628906 385.945312 305.949219 C 385.605469 306.164062 385.425781 306.191406 385.363281 306.191406 C 385.347656 306.191406 385.335938 306.1875 385.332031 306.1875 C 385.003906 306.109375 383.695312 305.335938 380.03125 298.957031 L 400.589844 303.933594 C 401.054688 304.042969 401.449219 304.101562 401.792969 304.101562 C 403.066406 304.101562 403.394531 303.3125 403.476562 302.976562 C 403.710938 301.992188 403.535156 300.667969 402.929688 298.925781 "/>
<path style=" stroke:none;fill-rule:nonzero;fill:rgb(100%,100%,100%);fill-opacity:1;" d="M 357.820312 328.585938 C 358.027344 328.671875 358.238281 328.714844 358.453125 328.714844 C 358.980469 328.714844 359.472656 328.460938 359.921875 327.96875 C 360.207031 327.65625 360.40625 327.566406 360.503906 327.539062 C 360.738281 327.5625 361.378906 327.695312 363.003906 328.351562 L 370.0625 331.214844 C 371.675781 331.867188 373.203125 332.199219 374.601562 332.199219 C 375.875 332.199219 377.074219 331.925781 378.164062 331.382812 C 380.351562 330.347656 381.964844 328.59375 382.941406 326.183594 C 383.671875 324.378906 383.917969 322.527344 383.667969 320.6875 C 383.53125 319.175781 382.960938 318.207031 381.972656 317.808594 C 381.664062 317.683594 381.367188 317.617188 381.089844 317.617188 C 380.65625 317.617188 379.859375 317.78125 379.417969 318.871094 C 379.285156 319.203125 379.261719 319.71875 379.554688 321.273438 C 379.558594 321.28125 379.558594 321.292969 379.5625 321.300781 C 379.859375 322.625 379.8125 323.785156 379.417969 324.753906 C 378.929688 325.957031 378.109375 326.800781 376.902344 327.339844 C 376.277344 327.621094 375.613281 327.765625 374.929688 327.765625 C 374.5625 327.765625 374.179688 327.722656 373.789062 327.640625 L 374.480469 326.195312 C 374.484375 326.179688 374.492188 326.167969 374.496094 326.152344 C 375.660156 323.28125 375.941406 320.542969 375.335938 318.019531 C 374.515625 314.953125 372.722656 312.847656 370 311.742188 C 368.945312 311.3125 367.914062 311.097656 366.945312 311.097656 C 365.914062 311.097656 364.925781 311.339844 364.007812 311.8125 C 362.253906 312.722656 360.964844 314.167969 360.175781 316.105469 C 359.261719 318.363281 359.367188 320.597656 360.484375 322.769531 C 360.054688 322.640625 359.707031 322.582031 359.421875 322.582031 C 359.390625 322.582031 359.359375 322.582031 359.328125 322.585938 C 358.628906 322.617188 358.082031 323.105469 357.703125 324.035156 L 357.019531 325.730469 C 356.222656 327.691406 357.3125 328.382812 357.820312 328.585938 M 363.855469 317.945312 C 364.171875 317.167969 364.816406 316.574219 365.835938 316.136719 C 366.152344 315.996094 366.476562 315.929688 366.835938 315.929688 C 367.304688 315.929688 367.832031 316.046875 368.402344 316.277344 C 369.660156 316.789062 370.507812 317.519531 371 318.511719 C 371.511719 319.542969 371.734375 320.667969 371.65625 321.859375 C 371.574219 323.097656 371.300781 324.300781 370.84375 325.433594 L 370.414062 326.378906 L 367.492188 325.195312 C 365.550781 324.40625 364.328125 323.421875 363.851562 322.269531 C 363.847656 322.261719 363.847656 322.257812 363.84375 322.25 C 363.234375 320.875 363.238281 319.464844 363.855469 317.945312 "/>
<path style=" stroke:none;fill-rule:nonzero;fill:rgb(100%,100%,100%);fill-opacity:1;" d="M 384.546875 345.542969 C 384.324219 345.40625 384.085938 345.339844 383.839844 345.339844 C 383.464844 345.339844 383.101562 345.492188 382.757812 345.800781 C 382.207031 346.160156 381.925781 346.28125 381.800781 346.320312 C 381.761719 346.320312 381.570312 346.292969 381.144531 346.039062 L 359.890625 333.234375 C 358.4375 332.359375 357.910156 331.894531 357.714844 331.675781 C 357.714844 331.570312 357.726562 331.324219 357.816406 330.859375 C 357.824219 330.808594 357.828125 330.757812 357.828125 330.707031 C 357.816406 329.660156 357.355469 329.164062 356.976562 328.933594 C 356.597656 328.703125 356.253906 328.59375 355.929688 328.59375 C 355.710938 328.59375 355.511719 328.644531 355.328125 328.738281 C 354.96875 328.925781 354.625 329.308594 354.242188 329.949219 L 351.765625 334.058594 C 351.476562 334.535156 351.390625 335 351.503906 335.441406 C 351.617188 335.882812 351.914062 336.25 352.390625 336.539062 C 352.667969 336.703125 352.960938 336.789062 353.265625 336.789062 C 353.707031 336.789062 354.144531 336.609375 354.566406 336.261719 C 354.902344 335.996094 355.078125 335.980469 355.113281 335.980469 C 355.128906 335.984375 355.164062 335.988281 355.179688 335.988281 C 355.3125 336 355.878906 336.109375 357.550781 337.117188 L 366.945312 342.777344 C 367.535156 345.058594 367.363281 346.929688 366.425781 348.488281 C 365.785156 349.550781 365.003906 350.152344 364.035156 350.339844 C 363.816406 350.378906 363.59375 350.398438 363.371094 350.398438 C 362.578125 350.398438 361.738281 350.132812 360.867188 349.609375 L 352.910156 344.816406 C 351.488281 343.957031 350.945312 343.496094 350.738281 343.273438 L 350.695312 342.949219 L 350.703125 342.5625 C 350.707031 341.5625 350.222656 341.0625 349.816406 340.816406 C 349.4375 340.589844 349.09375 340.476562 348.769531 340.476562 C 348.550781 340.476562 348.351562 340.527344 348.167969 340.625 C 347.8125 340.808594 347.46875 341.1875 347.089844 341.820312 L 344.820312 345.585938 C 344.53125 346.0625 344.441406 346.53125 344.550781 346.976562 C 344.660156 347.417969 344.960938 347.789062 345.441406 348.078125 C 345.722656 348.25 346.027344 348.339844 346.339844 348.339844 C 346.757812 348.339844 347.171875 348.179688 347.566406 347.867188 C 347.921875 347.589844 348.105469 347.566406 348.152344 347.566406 C 348.351562 347.609375 348.945312 347.8125 350.53125 348.769531 L 357.179688 352.773438 C 358.453125 353.539062 359.632812 354.109375 360.691406 354.464844 C 361.464844 354.726562 362.265625 354.855469 363.074219 354.855469 C 363.429688 354.855469 363.800781 354.832031 364.164062 354.777344 C 366.578125 354.472656 368.421875 353.292969 369.640625 351.269531 C 370.746094 349.433594 371.148438 347.375 370.847656 345.125 L 381.542969 351.570312 C 382.300781 352.027344 382.890625 352.238281 383.402344 352.238281 C 383.9375 352.238281 384.378906 352 384.644531 351.5625 C 384.890625 351.148438 385.0625 350.503906 385.179688 349.535156 C 385.285156 348.664062 385.324219 347.980469 385.308594 347.441406 C 385.335938 346.503906 385.078125 345.863281 384.546875 345.542969 "/>
<path style=" stroke:none;fill-rule:nonzero;fill:rgb(100%,100%,100%);fill-opacity:1;" d="M 362.683594 378.085938 C 362.636719 377.804688 362.496094 377.535156 362.257812 377.289062 C 361.996094 377.011719 361.652344 376.863281 361.269531 376.863281 C 361.015625 376.863281 360.746094 376.929688 360.46875 377.066406 C 359.847656 377.269531 359.546875 377.308594 359.417969 377.308594 C 359.378906 377.296875 359.179688 377.214844 358.785156 376.804688 L 344.640625 361.933594 C 341.964844 359.125 339.730469 357.550781 337.808594 357.132812 C 337.296875 357.03125 336.796875 356.980469 336.3125 356.980469 C 334.300781 356.980469 332.394531 357.824219 330.652344 359.480469 C 329.578125 360.503906 328.765625 361.765625 328.230469 363.242188 C 327.695312 364.714844 327.503906 366.277344 327.660156 367.882812 C 327.957031 370.804688 329.414062 373.660156 331.996094 376.375 C 333.433594 377.882812 334.988281 379.070312 336.625 379.90625 C 338.09375 380.660156 339.585938 381.039062 341.066406 381.039062 C 341.28125 381.039062 341.496094 381.03125 341.710938 381.015625 C 343.441406 380.886719 345.027344 380.148438 346.421875 378.824219 C 347.996094 377.324219 348.832031 375.402344 348.914062 373.097656 L 357.671875 382.300781 C 358.464844 383.136719 359.132812 383.523438 359.769531 383.523438 C 360.144531 383.523438 360.484375 383.386719 360.761719 383.121094 C 361.402344 382.511719 361.96875 381.292969 362.539062 379.289062 C 362.539062 379.28125 362.542969 379.273438 362.542969 379.265625 C 362.578125 379.128906 362.617188 378.980469 362.652344 378.824219 C 362.714844 378.570312 362.726562 378.320312 362.683594 378.085938 M 345.480469 372.773438 C 345.285156 373.949219 344.84375 374.867188 344.175781 375.507812 C 343.703125 375.957031 343.089844 376.191406 342.300781 376.226562 C 342.214844 376.230469 342.125 376.230469 342.039062 376.230469 C 341.273438 376.230469 340.507812 376.082031 339.765625 375.78125 C 339.757812 375.777344 339.75 375.773438 339.742188 375.773438 C 337.988281 375.121094 336.300781 373.949219 334.722656 372.292969 C 333.15625 370.644531 332.117188 368.851562 331.628906 366.957031 C 331.171875 365.195312 331.554688 363.765625 332.792969 362.589844 C 333.550781 361.867188 334.40625 361.515625 335.40625 361.515625 C 335.867188 361.515625 336.363281 361.59375 336.882812 361.742188 C 338.035156 362.101562 339.53125 363.234375 341.308594 365.105469 L 345.359375 369.363281 C 345.632812 370.457031 345.671875 371.601562 345.480469 372.773438 "/>
<path style=" stroke:none;fill-rule:nonzero;fill:rgb(100%,100%,100%);fill-opacity:1;" d="M 333.648438 383.042969 C 333.257812 383.042969 332.863281 383.179688 332.46875 383.453125 C 332.179688 383.65625 331.875 384.078125 331.273438 385.542969 C 331.269531 385.550781 331.269531 385.558594 331.265625 385.566406 C 330.792969 386.839844 330.117188 387.789062 329.257812 388.386719 C 328.425781 388.964844 327.546875 389.246094 326.574219 389.246094 C 326.304688 389.246094 326.023438 389.222656 325.742188 389.179688 C 324.6875 389.015625 323.773438 388.539062 322.964844 387.734375 L 324.335938 386.894531 C 324.347656 386.886719 324.359375 386.878906 324.371094 386.871094 C 326.914062 385.097656 328.644531 382.960938 329.511719 380.511719 C 329.515625 380.507812 329.519531 380.5 329.519531 380.496094 C 330.5 377.496094 330.148438 374.75 328.46875 372.339844 C 327.125 370.410156 325.421875 369.332031 323.40625 369.132812 C 323.132812 369.105469 322.855469 369.089844 322.585938 369.089844 C 320.921875 369.089844 319.328125 369.613281 317.855469 370.640625 C 315.855469 372.03125 314.722656 373.960938 314.476562 376.390625 C 314.152344 376.011719 313.871094 375.757812 313.609375 375.605469 C 313.382812 375.472656 313.132812 375.40625 312.863281 375.40625 C 312.425781 375.40625 311.964844 375.578125 311.457031 375.933594 L 309.957031 376.980469 C 308.21875 378.191406 308.757812 379.363281 309.070312 379.8125 C 309.394531 380.277344 309.898438 380.535156 310.492188 380.535156 C 310.703125 380.535156 310.929688 380.503906 311.167969 380.441406 C 311.355469 380.394531 311.523438 380.367188 311.664062 380.367188 C 311.753906 380.367188 311.828125 380.378906 311.886719 380.398438 C 312.070312 380.542969 312.535156 381.003906 313.542969 382.445312 L 317.894531 388.691406 C 319.800781 391.425781 322.050781 392.960938 324.589844 393.253906 C 325.007812 393.3125 325.441406 393.339844 325.867188 393.339844 C 327.8125 393.339844 329.683594 392.722656 331.429688 391.503906 C 333.03125 390.390625 334.242188 388.976562 335.039062 387.296875 C 335.75 385.953125 335.800781 384.832031 335.191406 383.957031 C 334.664062 383.203125 334.0625 383.042969 333.648438 383.042969 M 324.335938 381.722656 C 323.589844 382.714844 322.707031 383.578125 321.703125 384.277344 L 320.828125 384.835938 L 319.027344 382.246094 C 317.828125 380.53125 317.339844 379.035156 317.570312 377.808594 C 317.574219 377.800781 317.574219 377.792969 317.574219 377.789062 C 317.816406 376.300781 318.585938 375.125 319.933594 374.183594 C 320.429688 373.839844 321.007812 373.671875 321.710938 373.671875 C 321.984375 373.671875 322.273438 373.699219 322.578125 373.75 C 323.347656 373.875 324.027344 374.371094 324.652344 375.269531 C 325.425781 376.382812 325.742188 377.460938 325.613281 378.558594 C 325.480469 379.703125 325.050781 380.765625 324.335938 381.722656 "/>
<path style=" stroke:none;fill-rule:nonzero;fill:rgb(100%,100%,100%);fill-opacity:1;" d="M 315.007812 396.046875 C 314.886719 396.046875 314.757812 396.054688 314.625 396.066406 C 313.621094 395.984375 312.835938 395.375 312.234375 394.203125 L 307.058594 384.125 C 306.796875 383.621094 306.832031 383.4375 306.832031 383.4375 C 306.914062 383.238281 307.082031 383 307.328125 382.746094 C 307.351562 382.71875 307.375 382.691406 307.394531 382.664062 C 308.003906 381.816406 307.792969 381.101562 307.613281 380.75 C 307.273438 380.082031 306.710938 379.714844 306.035156 379.714844 C 305.664062 379.714844 305.277344 379.824219 304.847656 380.042969 L 300.980469 382.027344 C 299.789062 382.640625 299.402344 383.632812 299.945312 384.6875 C 300.148438 385.085938 300.613281 385.578125 301.660156 385.660156 C 301.679688 385.660156 301.699219 385.664062 301.71875 385.664062 C 301.742188 385.664062 301.769531 385.660156 301.792969 385.660156 C 301.929688 385.644531 302.054688 385.636719 302.167969 385.636719 C 302.328125 385.636719 302.464844 385.652344 302.570312 385.675781 C 302.605469 385.703125 302.746094 385.824219 302.953125 386.230469 L 306.253906 392.660156 C 307.046875 394.199219 307.421875 395.734375 307.375 397.222656 L 307.375 397.253906 C 307.398438 399.835938 306.78125 400.429688 306.515625 400.566406 C 306.488281 400.582031 306.320312 400.65625 305.820312 400.65625 C 305.722656 400.65625 305.617188 400.648438 305.507812 400.644531 C 305.335938 400.636719 305.175781 400.632812 305.035156 400.632812 C 304.480469 400.632812 304.109375 400.695312 303.839844 400.832031 C 303.316406 401.101562 303.023438 401.589844 303.019531 402.203125 C 303.015625 402.660156 303.171875 403.191406 303.496094 403.824219 C 304.261719 405.3125 305.246094 406.070312 306.417969 406.070312 C 306.890625 406.070312 307.382812 405.9375 307.882812 405.683594 C 309.035156 405.089844 309.8125 403.839844 310.191406 401.964844 C 310.355469 401.160156 310.453125 400.375 310.496094 399.609375 C 310.957031 400.210938 311.378906 400.730469 311.761719 401.171875 C 312.46875 401.984375 313.15625 402.378906 313.871094 402.378906 C 314.167969 402.378906 314.457031 402.304688 314.730469 402.164062 C 315.335938 401.855469 315.839844 401.046875 316.414062 399.457031 C 316.886719 398.320312 316.960938 397.507812 316.648438 396.902344 C 316.449219 396.511719 316.003906 396.046875 315.007812 396.046875 "/>
<path style=" stroke:none;fill-rule:nonzero;fill:rgb(100%,41.999817%,7.499695%);fill-opacity:1;" d="M 112.261719 283.695312 C 111.96875 282.09375 111.332031 280.609375 110.367188 279.277344 C 109.382812 277.921875 108.089844 276.90625 106.519531 276.261719 C 105.332031 275.785156 103.851562 275.546875 102.109375 275.546875 C 100.582031 275.546875 98.800781 275.730469 96.824219 276.09375 L 76.152344 279.882812 C 75.476562 280.003906 74.945312 280.070312 74.570312 280.070312 C 74.347656 280.070312 74.246094 280.046875 74.210938 280.039062 C 74.121094 280.011719 73.878906 279.890625 73.542969 279.3125 C 73.011719 278.253906 72.238281 278.03125 71.683594 278.03125 C 71.550781 278.03125 71.417969 278.042969 71.28125 278.070312 C 70.476562 278.214844 70.09375 278.679688 69.914062 279.042969 C 69.6875 279.503906 69.640625 280.066406 69.769531 280.773438 L 70.929688 287.113281 C 71.257812 288.894531 72.304688 289.160156 72.898438 289.160156 C 73.03125 289.160156 73.167969 289.148438 73.304688 289.121094 C 73.570312 289.074219 74.382812 288.925781 74.671875 288.265625 C 74.785156 288.011719 74.890625 287.605469 75.011719 286.953125 C 75.019531 286.929688 75.023438 286.90625 75.023438 286.882812 C 75.109375 285.972656 75.324219 285.804688 75.328125 285.804688 L 99.046875 281.460938 C 100.496094 281.195312 101.769531 281.058594 102.820312 281.058594 C 103.867188 281.058594 104.714844 281.191406 105.332031 281.453125 C 106.925781 282.121094 107.855469 283.292969 108.175781 285.035156 C 108.398438 286.25 108.210938 287.390625 107.609375 288.523438 C 107.035156 289.59375 106.140625 290.226562 104.871094 290.460938 C 104.664062 290.5 104.464844 290.519531 104.273438 290.519531 C 103.871094 290.519531 103.5 290.4375 103.148438 290.269531 C 103.042969 290.195312 102.722656 289.925781 102.203125 288.984375 C 101.410156 287.464844 100.398438 287.148438 99.691406 287.148438 C 99.535156 287.148438 99.378906 287.164062 99.222656 287.191406 C 98.398438 287.339844 97.757812 287.746094 97.316406 288.394531 C 96.878906 289.039062 96.71875 289.726562 96.851562 290.4375 C 97.160156 292.113281 98.195312 293.332031 99.929688 294.0625 C 101.023438 294.519531 102.175781 294.753906 103.355469 294.753906 C 103.929688 294.753906 104.523438 294.699219 105.117188 294.589844 C 107.832031 294.09375 109.84375 292.742188 111.09375 290.582031 C 112.320312 288.464844 112.710938 286.144531 112.261719 283.695312 "/>
<path style=" stroke:none;fill-rule:nonzero;fill:rgb(100%,41.999817%,7.499695%);fill-opacity:1;" d="M 82.730469 270.988281 C 83.523438 272.414062 84.496094 273.140625 85.628906 273.140625 C 85.65625 273.140625 85.683594 273.136719 85.710938 273.136719 C 87.035156 273.097656 87.804688 272.289062 87.765625 270.972656 C 87.75 270.589844 87.542969 270.058594 86.542969 268.609375 C 86.535156 268.601562 86.53125 268.597656 86.527344 268.589844 C 85.605469 267.339844 85.117188 266.101562 85.078125 264.902344 C 85.03125 263.414062 85.503906 262.144531 86.519531 261.019531 C 87.363281 260.082031 88.433594 259.488281 89.769531 259.230469 L 89.714844 261.164062 L 89.714844 261.207031 C 89.824219 264.683594 90.773438 267.613281 92.539062 269.925781 C 92.542969 269.933594 92.546875 269.9375 92.550781 269.941406 C 94.683594 272.59375 97.355469 273.9375 100.480469 273.9375 C 100.597656 273.9375 100.714844 273.933594 100.832031 273.933594 C 103.453125 273.851562 105.496094 272.917969 106.910156 271.15625 C 108.289062 269.433594 108.953125 267.378906 108.882812 265.042969 C 108.792969 262.25 107.617188 259.96875 105.375 258.238281 C 106.035156 258.167969 106.519531 258.050781 106.855469 257.882812 C 107.523438 257.546875 107.847656 256.824219 107.8125 255.734375 L 107.75 253.671875 C 107.679688 251.425781 106.355469 251.183594 105.789062 251.183594 C 105.765625 251.183594 105.742188 251.183594 105.71875 251.183594 C 105.230469 251.199219 104.347656 251.417969 103.917969 252.71875 C 103.757812 253.199219 103.578125 253.398438 103.46875 253.480469 C 103.191406 253.578125 102.449219 253.730469 100.472656 253.792969 L 91.886719 254.0625 C 88.15625 254.179688 85.34375 255.351562 83.519531 257.550781 C 81.75 259.601562 80.894531 262.121094 80.988281 265.03125 C 81.054688 267.210938 81.640625 269.214844 82.730469 270.988281 M 100.15625 268.71875 C 98.722656 268.71875 97.574219 268.34375 96.648438 267.574219 C 95.636719 266.734375 94.886719 265.660156 94.417969 264.378906 C 93.929688 263.054688 93.660156 261.675781 93.613281 260.285156 L 93.628906 259.019531 L 97.277344 258.90625 C 97.445312 258.898438 97.605469 258.898438 97.765625 258.898438 C 99.902344 258.898438 101.476562 259.367188 102.441406 260.289062 C 102.445312 260.296875 102.449219 260.300781 102.457031 260.304688 C 103.734375 261.464844 104.382812 262.945312 104.441406 264.820312 C 104.472656 265.792969 104.066406 266.722656 103.195312 267.660156 C 102.589844 268.332031 101.679688 268.675781 100.414062 268.714844 C 100.328125 268.71875 100.242188 268.71875 100.15625 268.71875 "/>
<path style=" stroke:none;fill-rule:nonzero;fill:rgb(100%,41.999817%,7.499695%);fill-opacity:1;" d="M 111.171875 212.675781 C 111.097656 212.664062 111.019531 212.660156 110.945312 212.660156 C 110.320312 212.660156 109.75 212.996094 109.25 213.660156 L 108.890625 214.027344 C 108.855469 214.0625 108.828125 214.101562 108.800781 214.140625 C 108.546875 214.527344 108.371094 214.527344 108.300781 214.527344 C 108.277344 214.527344 108.257812 214.523438 108.234375 214.519531 L 96.835938 212.964844 C 95.679688 212.808594 94.605469 212.726562 93.640625 212.726562 C 91.65625 212.726562 90.039062 213.066406 88.832031 213.738281 C 86.554688 214.921875 85.222656 216.816406 84.875 219.371094 C 84.65625 220.941406 84.925781 222.550781 85.664062 224.152344 C 86.214844 225.351562 86.957031 226.417969 87.882812 227.34375 C 84.980469 228.667969 83.324219 230.722656 82.949219 233.464844 C 82.582031 236.164062 83.4375 238.636719 85.496094 240.832031 C 82.355469 241.015625 81.800781 241.882812 81.699219 242.648438 C 81.648438 243.011719 81.714844 243.414062 81.898438 243.835938 C 82.050781 244.1875 82.261719 244.546875 82.546875 244.941406 C 82.84375 245.351562 82.976562 245.550781 83.035156 245.644531 C 83.054688 245.675781 83.078125 245.707031 83.105469 245.734375 C 83.125 245.757812 83.210938 245.863281 83.46875 246.226562 C 83.703125 246.550781 83.925781 246.816406 84.152344 247.035156 C 84.464844 247.332031 84.808594 247.507812 85.175781 247.558594 C 85.234375 247.566406 85.289062 247.570312 85.34375 247.570312 C 86.277344 247.570312 86.835938 246.550781 87.027344 246.195312 C 87.269531 245.789062 88.007812 245.566406 89.109375 245.566406 C 89.601562 245.566406 90.171875 245.609375 90.804688 245.695312 L 103.738281 247.460938 C 103.929688 247.484375 104.011719 247.53125 104.039062 247.550781 C 104.121094 247.609375 104.183594 247.671875 104.230469 247.753906 C 104.300781 247.863281 104.351562 247.972656 104.386719 248.085938 C 104.4375 248.265625 104.492188 248.421875 104.546875 248.558594 C 104.742188 249.339844 105.300781 249.847656 106.085938 249.953125 C 106.1875 249.96875 106.289062 249.976562 106.386719 249.976562 C 107.011719 249.976562 108.09375 249.691406 108.351562 247.78125 L 108.996094 243.082031 C 109.183594 241.691406 108.574219 240.761719 107.363281 240.597656 C 107.265625 240.582031 107.167969 240.578125 107.078125 240.578125 C 106.652344 240.578125 105.863281 240.726562 105.347656 241.714844 C 105.257812 241.878906 105.148438 242.070312 105.027344 242.289062 C 104.960938 242.40625 104.875 242.496094 104.765625 242.566406 C 104.75 242.574219 104.703125 242.597656 104.574219 242.597656 C 104.523438 242.597656 104.46875 242.59375 104.40625 242.585938 L 91.550781 240.832031 C 90.027344 240.625 88.933594 239.914062 88.214844 238.65625 C 87.457031 237.332031 87.171875 236.078125 87.34375 234.8125 C 87.550781 233.285156 88.183594 232.414062 89.339844 232.074219 C 90.089844 231.855469 90.996094 231.742188 92.03125 231.742188 C 92.828125 231.742188 93.714844 231.808594 94.667969 231.9375 L 105.652344 233.4375 C 105.917969 233.472656 105.984375 233.542969 105.984375 233.542969 C 106.070312 233.644531 106.128906 233.753906 106.160156 233.878906 C 106.222656 234.128906 106.28125 234.359375 106.339844 234.566406 C 106.355469 234.625 106.378906 234.683594 106.410156 234.738281 C 106.839844 235.492188 107.371094 235.917969 107.988281 236 C 108.15625 236.023438 108.3125 236.035156 108.457031 236.035156 C 109.027344 236.035156 109.453125 235.859375 109.722656 235.507812 C 109.972656 235.1875 110.136719 234.699219 110.238281 233.972656 L 110.910156 229.039062 C 111.011719 228.285156 110.964844 227.792969 110.753906 227.449219 C 110.441406 226.9375 109.789062 226.789062 109.253906 226.714844 C 109.179688 226.707031 109.097656 226.699219 109.023438 226.699219 C 108.371094 226.699219 107.789062 227.054688 107.292969 227.753906 C 107.289062 227.761719 107.28125 227.769531 107.277344 227.773438 C 107.109375 228.03125 106.960938 228.246094 106.839844 228.410156 C 106.789062 228.484375 106.730469 228.53125 106.664062 228.558594 C 106.664062 228.5625 106.625 228.578125 106.515625 228.578125 C 106.460938 228.578125 106.390625 228.570312 106.316406 228.5625 L 93.464844 226.808594 C 91.929688 226.597656 90.835938 225.882812 90.121094 224.617188 C 89.371094 223.285156 89.09375 221.980469 89.277344 220.628906 C 89.488281 219.082031 90.265625 218.175781 91.71875 217.773438 C 92.097656 217.671875 92.613281 217.617188 93.253906 217.617188 C 94.023438 217.617188 94.976562 217.695312 96.082031 217.847656 L 107.566406 219.414062 C 107.8125 219.445312 107.921875 219.503906 107.941406 219.523438 C 108.015625 219.601562 108.0625 219.691406 108.09375 219.808594 L 108.261719 220.441406 C 108.269531 220.464844 108.277344 220.488281 108.285156 220.507812 C 108.679688 221.59375 109.382812 221.90625 109.902344 221.980469 C 110.0625 222 110.214844 222.011719 110.351562 222.011719 C 111.085938 222.011719 111.464844 221.699219 111.65625 221.441406 C 111.898438 221.101562 112.0625 220.601562 112.164062 219.859375 L 112.832031 214.945312 C 112.925781 214.269531 112.875 213.796875 112.679688 213.449219 C 112.367188 212.898438 111.671875 212.742188 111.171875 212.675781 "/>
<path style=" stroke:none;fill-rule:nonzero;fill:rgb(100%,41.999817%,7.499695%);fill-opacity:1;" d="M 83.515625 201.046875 C 83.945312 201.046875 84.378906 200.972656 84.800781 200.828125 C 85.722656 200.515625 86.375 199.878906 86.6875 198.996094 C 87.03125 198.03125 86.957031 197.113281 86.476562 196.265625 C 86.015625 195.457031 85.246094 194.859375 84.191406 194.484375 C 83.761719 194.332031 83.335938 194.253906 82.914062 194.253906 C 82.457031 194.253906 82 194.347656 81.566406 194.53125 C 80.699219 194.894531 80.105469 195.523438 79.792969 196.402344 C 79.480469 197.289062 79.554688 198.175781 80.015625 199.035156 C 80.464844 199.867188 81.183594 200.460938 82.152344 200.804688 C 82.605469 200.964844 83.0625 201.046875 83.515625 201.046875 "/>
<path style=" stroke:none;fill-rule:nonzero;fill:rgb(100%,41.999817%,7.499695%);fill-opacity:1;" d="M 114.621094 202.976562 C 114.417969 202.90625 114.210938 202.871094 114.007812 202.871094 C 113.425781 202.871094 112.890625 203.152344 112.414062 203.710938 C 112.039062 204.105469 111.832031 204.203125 111.769531 204.226562 C 111.460938 204.191406 110.699219 204.027344 108.835938 203.367188 L 98.800781 199.8125 C 96.308594 198.929688 94.394531 198.304688 93.109375 197.953125 C 93.089844 197.949219 93.070312 197.941406 93.050781 197.9375 C 92.144531 197.765625 91.480469 197.671875 91.027344 197.652344 C 91 197.648438 90.972656 197.648438 90.945312 197.648438 C 90.234375 197.648438 89.667969 198.089844 89.394531 198.859375 C 89.316406 199.082031 89.277344 199.191406 89.65625 201.210938 C 89.910156 203.582031 90.171875 204.355469 90.375 204.734375 C 90.566406 205.167969 90.902344 205.480469 91.355469 205.640625 C 91.515625 205.695312 91.679688 205.722656 91.847656 205.722656 C 92.417969 205.722656 92.960938 205.410156 93.503906 204.769531 C 93.527344 204.742188 93.546875 204.714844 93.5625 204.691406 C 94.015625 203.996094 94.269531 203.875 94.3125 203.859375 C 94.539062 203.875 95.222656 204 97.308594 204.597656 L 107.894531 208.347656 C 109.058594 208.761719 109.554688 209.082031 109.765625 209.28125 C 109.84375 209.355469 110.085938 209.585938 110.0625 210.285156 C 110.0625 210.3125 110.0625 210.335938 110.066406 210.363281 C 110.128906 211.253906 110.589844 211.898438 111.363281 212.167969 C 111.605469 212.253906 111.84375 212.296875 112.070312 212.296875 C 112.671875 212.296875 113.492188 212.011719 113.976562 210.640625 L 115.710938 205.742188 C 115.9375 205.113281 115.964844 204.554688 115.804688 204.089844 C 115.675781 203.730469 115.367188 203.242188 114.621094 202.976562 "/>
<path style=" stroke:none;fill-rule:nonzero;fill:rgb(100%,41.999817%,7.499695%);fill-opacity:1;" d="M 123.011719 187.238281 C 122.394531 184.558594 121.46875 182.949219 120.1875 182.320312 C 119.878906 182.167969 119.582031 182.09375 119.304688 182.09375 C 118.96875 182.09375 118.347656 182.210938 117.96875 182.988281 C 117.765625 183.398438 117.761719 184.015625 118.414062 185.664062 C 118.832031 186.710938 119.101562 187.769531 119.222656 188.800781 C 119.332031 189.753906 119.089844 190.851562 118.492188 192.066406 C 117.734375 193.621094 116.582031 194.691406 114.972656 195.34375 C 114.128906 195.683594 113.230469 195.859375 112.3125 195.859375 C 111.726562 195.859375 111.121094 195.789062 110.5 195.648438 L 110.515625 195.601562 C 110.519531 195.59375 110.527344 195.582031 110.527344 195.570312 C 111.988281 191.125 112.707031 188.003906 112.730469 186.023438 C 112.964844 181.699219 111.441406 178.707031 108.199219 177.121094 C 107.167969 176.617188 106.121094 176.359375 105.082031 176.359375 C 103.867188 176.359375 102.648438 176.707031 101.453125 177.390625 C 99.886719 178.164062 98.644531 179.472656 97.757812 181.277344 C 96.71875 183.40625 96.371094 185.691406 96.730469 188.074219 C 97.082031 190.433594 98.058594 192.65625 99.632812 194.679688 C 101.195312 196.691406 103.191406 198.300781 105.570312 199.464844 C 107.671875 200.492188 109.777344 201.015625 111.820312 201.015625 C 112.988281 201.015625 114.160156 200.84375 115.300781 200.507812 C 118.472656 199.574219 120.800781 197.625 122.222656 194.71875 C 123.351562 192.410156 123.617188 189.894531 123.011719 187.238281 M 106.871094 194.363281 C 104.527344 193.089844 102.765625 191.476562 101.628906 189.558594 C 100.425781 187.523438 100.355469 185.480469 101.417969 183.308594 C 101.867188 182.390625 102.457031 181.792969 103.21875 181.480469 C 103.496094 181.367188 103.78125 181.3125 104.09375 181.3125 C 104.609375 181.3125 105.191406 181.46875 105.824219 181.777344 C 109 183.332031 109.347656 187.5625 106.871094 194.363281 "/>
<path style=" stroke:none;fill-rule:nonzero;fill:rgb(100%,41.999817%,7.499695%);fill-opacity:1;" d="M 140.03125 167.699219 C 139.6875 167.390625 139.25 167.226562 138.769531 167.226562 C 138.3125 167.226562 137.820312 167.367188 137.265625 167.652344 C 137.238281 167.667969 137.210938 167.683594 137.1875 167.703125 C 136.546875 168.140625 136.25 168.195312 136.167969 168.199219 L 128.382812 161.234375 C 131.695312 157.40625 133.710938 153.765625 134.375 150.398438 C 134.910156 148.050781 134.882812 145.644531 134.296875 143.246094 C 133.703125 140.808594 132.433594 138.703125 130.527344 136.996094 C 128.375 135.070312 126.042969 134.09375 123.597656 134.09375 C 122.585938 134.09375 121.542969 134.261719 120.496094 134.59375 C 118.128906 135.339844 115.699219 137.09375 113.277344 139.800781 L 105.324219 148.6875 C 104.949219 149.105469 103.839844 150.5625 105.203125 151.785156 C 105.648438 152.183594 106.039062 152.367188 106.425781 152.367188 C 106.507812 152.367188 106.585938 152.359375 106.664062 152.34375 C 106.921875 152.289062 107.292969 152.148438 107.871094 151.886719 C 107.902344 151.871094 107.933594 151.855469 107.964844 151.835938 C 108.511719 151.488281 108.789062 151.449219 108.878906 151.449219 C 108.929688 151.449219 108.941406 151.460938 108.949219 151.464844 L 130.953125 171.15625 C 132.042969 172.128906 132.253906 172.492188 132.292969 172.582031 C 132.304688 172.605469 132.390625 172.835938 132.121094 173.527344 C 132.113281 173.546875 132.105469 173.570312 132.097656 173.589844 C 131.699219 174.941406 132.125 175.679688 132.550781 176.058594 C 132.929688 176.398438 133.347656 176.570312 133.792969 176.570312 C 134.40625 176.570312 135.015625 176.238281 135.597656 175.582031 L 139.894531 170.78125 C 140.375 170.246094 140.628906 169.742188 140.679688 169.238281 C 140.71875 168.835938 140.636719 168.242188 140.03125 167.699219 M 128.328125 153.476562 C 127.453125 155.292969 126.402344 156.941406 125.199219 158.386719 L 115.03125 149.285156 C 113.945312 148.316406 113.414062 147.464844 113.496094 146.820312 C 113.625 146.273438 114.089844 145.28125 115.574219 143.625 C 117.292969 141.703125 119.03125 140.550781 120.734375 140.207031 C 121.226562 140.109375 121.710938 140.0625 122.179688 140.0625 C 123.855469 140.0625 125.363281 140.675781 126.777344 141.941406 C 128.542969 143.523438 129.464844 145.28125 129.59375 147.316406 C 129.722656 149.394531 129.296875 151.46875 128.328125 153.476562 "/>
<path style=" stroke:none;fill-rule:nonzero;fill:rgb(100%,41.999817%,7.499695%);fill-opacity:1;" d="M 157.246094 150.960938 C 157 150.671875 156.539062 150.328125 155.730469 150.328125 C 155.5625 150.328125 155.386719 150.34375 155.199219 150.371094 C 155.175781 150.375 155.148438 150.378906 155.121094 150.386719 L 154.558594 150.535156 C 154.550781 150.539062 154.542969 150.539062 154.53125 150.539062 C 154.5 150.539062 154.332031 150.527344 153.988281 150.261719 C 153.980469 150.253906 153.972656 150.25 153.964844 150.242188 C 153.667969 150.03125 153.105469 149.535156 152.097656 148.355469 L 131.535156 124.25 C 130.730469 123.308594 130.039062 122.867188 129.359375 122.867188 C 129.007812 122.867188 128.675781 122.992188 128.402344 123.226562 C 128.015625 123.554688 127.625 124.164062 127.167969 125.140625 C 126.757812 126.019531 126.464844 126.757812 126.292969 127.335938 C 126.269531 127.425781 126.222656 127.570312 126.15625 127.761719 C 126.054688 128.070312 126.015625 128.367188 126.042969 128.644531 C 126.074219 128.96875 126.203125 129.261719 126.421875 129.519531 C 126.707031 129.855469 127.089844 130.03125 127.527344 130.03125 C 127.789062 130.03125 128.066406 129.96875 128.351562 129.839844 C 128.625 129.742188 128.875 129.691406 129.101562 129.691406 C 129.5 129.691406 129.824219 129.851562 130.117188 130.195312 L 148.34375 151.5625 C 149.839844 153.3125 150.113281 153.984375 150.164062 154.179688 L 149.878906 154.875 C 149.863281 154.90625 149.855469 154.941406 149.84375 154.976562 C 149.632812 155.8125 149.742188 156.492188 150.171875 156.996094 C 150.601562 157.5 151.09375 157.757812 151.628906 157.757812 C 152.066406 157.757812 152.5 157.578125 152.910156 157.226562 L 156.972656 153.761719 C 157.523438 153.292969 157.804688 152.902344 157.875 152.507812 C 157.984375 151.917969 157.597656 151.371094 157.246094 150.960938 "/>
<path style=" stroke:none;fill-rule:nonzero;fill:rgb(100%,41.999817%,7.499695%);fill-opacity:1;" d="M 176 137.375 C 175.648438 136.855469 175.113281 136.582031 174.453125 136.582031 C 174.230469 136.582031 173.992188 136.613281 173.742188 136.675781 C 173.535156 136.722656 173.34375 136.75 173.179688 136.75 C 173.050781 136.75 172.945312 136.734375 172.859375 136.703125 C 172.628906 136.519531 172.097656 135.972656 170.992188 134.335938 L 166.171875 127.222656 C 164.082031 124.132812 161.585938 122.382812 158.753906 122.019531 C 158.242188 121.945312 157.710938 121.90625 157.191406 121.90625 C 155.066406 121.90625 153.011719 122.570312 151.078125 123.878906 C 149.269531 125.101562 147.890625 126.667969 146.976562 128.539062 C 146.171875 130.003906 146.097656 131.238281 146.75 132.203125 C 147.316406 133.039062 147.96875 133.214844 148.421875 133.214844 C 148.832031 133.214844 149.253906 133.070312 149.675781 132.785156 C 149.996094 132.570312 150.332031 132.109375 151.019531 130.488281 C 151.027344 130.480469 151.027344 130.46875 151.03125 130.464844 C 151.59375 129.015625 152.378906 127.941406 153.375 127.269531 C 154.316406 126.628906 155.304688 126.316406 156.394531 126.316406 C 156.730469 126.316406 157.074219 126.347656 157.425781 126.40625 C 158.667969 126.621094 159.738281 127.207031 160.671875 128.199219 L 159.011719 129.1875 C 159 129.195312 158.988281 129.203125 158.972656 129.210938 C 156.09375 131.160156 154.125 133.53125 153.117188 136.261719 C 151.96875 139.617188 152.324219 142.691406 154.164062 145.40625 C 155.636719 147.582031 157.515625 148.808594 159.757812 149.0625 C 160.101562 149.097656 160.449219 149.117188 160.789062 149.117188 C 162.605469 149.117188 164.351562 148.5625 165.976562 147.457031 C 168.292969 145.890625 169.589844 143.675781 169.855469 140.855469 C 170.269531 141.378906 170.625 141.722656 170.945312 141.917969 C 171.191406 142.0625 171.464844 142.136719 171.757812 142.136719 C 172.222656 142.136719 172.71875 141.957031 173.277344 141.578125 L 174.984375 140.421875 C 176.890625 139.132812 176.328125 137.859375 176 137.375 M 166.550781 139.472656 C 166.550781 139.480469 166.550781 139.488281 166.550781 139.496094 C 166.25 141.195312 165.347656 142.535156 163.792969 143.585938 C 163.226562 143.96875 162.574219 144.15625 161.789062 144.15625 C 161.460938 144.15625 161.101562 144.121094 160.730469 144.054688 C 159.835938 143.898438 159.058594 143.316406 158.351562 142.269531 C 157.476562 140.980469 157.132812 139.738281 157.300781 138.472656 C 157.46875 137.171875 157.976562 135.960938 158.808594 134.878906 C 159.667969 133.757812 160.6875 132.792969 161.835938 132.011719 L 162.914062 131.347656 L 164.964844 134.371094 C 166.304688 136.347656 166.839844 138.066406 166.550781 139.472656 "/>
<path style=" stroke:none;fill-rule:nonzero;fill:rgb(100%,41.999817%,7.499695%);fill-opacity:1;" d="M 191.535156 125.875 C 191.121094 125.007812 190.539062 124.824219 190.121094 124.824219 C 189.898438 124.824219 189.671875 124.878906 189.449219 124.988281 C 188.851562 125.273438 188.46875 125.96875 188.210938 127.238281 C 188.207031 127.246094 188.207031 127.253906 188.207031 127.257812 C 187.835938 129.375 186.703125 130.859375 184.742188 131.796875 C 183.984375 132.160156 183.21875 132.34375 182.460938 132.34375 C 181.539062 132.34375 180.589844 132.070312 179.632812 131.527344 C 177.824219 130.496094 176.386719 128.894531 175.367188 126.765625 C 174.089844 124.101562 173.503906 121.632812 173.632812 119.429688 C 173.632812 119.417969 173.632812 119.402344 173.632812 119.390625 C 173.652344 117.074219 174.433594 115.578125 176.023438 114.8125 C 176.609375 114.53125 177.132812 114.390625 177.582031 114.390625 C 177.714844 114.390625 177.84375 114.402344 177.964844 114.429688 C 178.578125 114.5625 179.410156 114.921875 180.4375 115.5 C 181.542969 116.121094 181.890625 116.277344 182.058594 116.335938 C 182.207031 116.390625 182.363281 116.417969 182.53125 116.417969 C 182.851562 116.417969 183.210938 116.320312 183.632812 116.117188 C 184.035156 115.925781 184.554688 115.488281 184.738281 114.511719 C 184.863281 113.816406 184.785156 113.167969 184.503906 112.582031 C 183.875 111.269531 182.664062 110.40625 180.90625 110.019531 C 180.207031 109.855469 179.496094 109.769531 178.808594 109.769531 C 177.53125 109.769531 176.273438 110.058594 175.082031 110.632812 C 172.996094 111.632812 171.390625 113.152344 170.320312 115.15625 C 169.261719 117.128906 168.761719 119.363281 168.828125 121.796875 C 168.890625 124.203125 169.480469 126.585938 170.582031 128.875 C 171.644531 131.097656 173.015625 132.957031 174.648438 134.398438 C 176.3125 135.867188 178.167969 136.789062 180.160156 137.132812 C 180.695312 137.226562 181.242188 137.273438 181.777344 137.273438 C 183.253906 137.273438 184.738281 136.921875 186.199219 136.21875 C 188.703125 135.019531 190.433594 132.945312 191.34375 130.050781 C 191.949219 128.246094 192.015625 126.875 191.535156 125.875 "/>
<path style=" stroke:none;fill-rule:nonzero;fill:rgb(100%,41.999817%,7.499695%);fill-opacity:1;" d="M 212.234375 118.992188 C 211.925781 117.804688 211.089844 117.675781 210.742188 117.675781 C 210.597656 117.675781 210.441406 117.695312 210.285156 117.738281 C 209.835938 117.851562 209.371094 118.25 208.539062 119.816406 C 208.015625 120.816406 207.386719 121.707031 206.679688 122.46875 C 206.03125 123.171875 205.035156 123.699219 203.726562 124.039062 C 203.140625 124.191406 202.5625 124.265625 202 124.265625 C 200.960938 124.265625 199.9375 124.003906 198.949219 123.492188 C 197.609375 122.796875 196.574219 121.746094 195.804688 120.292969 L 195.855469 120.277344 C 195.863281 120.273438 195.875 120.269531 195.886719 120.265625 C 200.210938 118.480469 203.054688 117 204.574219 115.730469 C 208.011719 113.101562 209.292969 109.996094 208.390625 106.5 C 207.769531 104.078125 206.222656 102.414062 203.800781 101.550781 C 202.871094 101.152344 201.871094 100.949219 200.824219 100.949219 C 200.066406 100.949219 199.265625 101.058594 198.445312 101.269531 C 196.15625 101.859375 194.191406 103.082031 192.613281 104.90625 C 191.046875 106.707031 189.992188 108.894531 189.480469 111.402344 C 188.964844 113.898438 189.039062 116.464844 189.703125 119.027344 C 190.625 122.597656 192.484375 125.3125 195.234375 127.101562 C 197.144531 128.339844 199.175781 128.972656 201.269531 128.972656 C 202.203125 128.972656 203.167969 128.84375 204.132812 128.59375 C 206.621094 127.953125 208.703125 126.519531 210.328125 124.332031 C 211.96875 122.121094 212.589844 120.375 212.234375 118.992188 M 194.425781 116.699219 C 193.867188 114.089844 193.949219 111.703125 194.667969 109.59375 C 195.433594 107.355469 196.941406 105.972656 199.28125 105.371094 C 199.675781 105.269531 200.058594 105.214844 200.410156 105.214844 C 200.9375 105.214844 201.40625 105.324219 201.84375 105.550781 C 202.546875 105.910156 203.023438 106.621094 203.308594 107.722656 C 204.191406 111.144531 201.203125 114.164062 194.425781 116.699219 "/>
<path style=" stroke:none;fill-rule:nonzero;fill:rgb(100%,100%,100%);fill-opacity:1;" d="M 342.410156 138.367188 C 332.027344 121.230469 316.386719 112.527344 295.476562 112.257812 C 287.949219 112.160156 281.164062 113.589844 275.132812 116.550781 C 269.09375 119.507812 266.21875 120.988281 266.5 120.992188 C 265.101562 120.976562 264.835938 120.859375 264.835938 120.363281 C 264.824219 108.230469 265.3125 100.03125 265.570312 95.78125 C 265.640625 94.636719 263.769531 94.644531 262.644531 95.4375 C 253.601562 104.429688 229.351562 119.828125 212.675781 128.164062 C 211.136719 128.9375 213.25 130.628906 213.25 130.628906 C 219.097656 131.519531 223.796875 134.613281 227.355469 139.921875 C 230.644531 144.417969 232.257812 148.992188 232.195312 153.648438 L 231.585938 201.089844 C 231.980469 201.144531 232.335938 201.175781 232.644531 201.175781 C 233.28125 201.175781 233.699219 201.0625 233.886719 200.832031 C 234.378906 200.234375 234.324219 198.410156 233.726562 195.414062 C 233.613281 194.847656 233.511719 194.34375 233.421875 193.898438 C 232.820312 190.953125 232.730469 190.5 233.289062 189.816406 C 233.585938 189.449219 234.027344 189.242188 234.5 189.242188 C 235.359375 189.242188 235.789062 189.808594 236.433594 190.667969 C 237.824219 192.519531 241.085938 196.859375 247.148438 198.011719 C 250.058594 198.5625 252.160156 199.914062 253.398438 202.015625 C 255.59375 205.761719 254.0625 210.460938 254 210.660156 C 253.855469 211.082031 253.535156 211.421875 253.121094 211.589844 C 252.992188 211.640625 249.808594 212.878906 241.0625 213.421875 C 237.78125 213.625 234.570312 213.789062 231.421875 213.925781 L 231.382812 217.03125 L 249.859375 217.265625 C 250.710938 217.277344 251.453125 217.859375 251.667969 218.683594 L 252.519531 221.949219 C 252.773438 222.914062 252.234375 223.910156 251.289062 224.226562 C 244.1875 226.601562 238.410156 230.484375 234.121094 235.757812 C 232.949219 237.195312 231.941406 238.628906 231.085938 240.054688 L 230.3125 299.972656 C 230.269531 303.28125 229.101562 306.222656 226.8125 308.792969 L 226.609375 323.082031 C 247.757812 323.28125 281.261719 323.59375 283 323.59375 C 284.535156 323.59375 284.433594 322.097656 284.433594 320.929688 C 284.433594 319.757812 283.433594 319.007812 282.925781 318.757812 C 279.550781 317.109375 276.175781 315.382812 272.804688 313.578125 C 268.925781 311.503906 263.78125 306.191406 263.78125 299.796875 C 263.78125 293.402344 264.410156 243.460938 264.410156 243.460938 C 266.8125 245.859375 269.859375 247.207031 274.46875 249.53125 C 281.476562 253.066406 289.191406 253.445312 295.332031 253.445312 C 324.335938 253.445312 334.230469 242.609375 344.230469 224.316406 C 350.511719 212.859375 353.757812 199.34375 353.957031 183.757812 C 354.179688 166.554688 350.328125 151.425781 342.410156 138.367188 M 318.519531 206.984375 C 314.367188 220.601562 305.289062 227.460938 290.230469 227.265625 C 277.683594 227.105469 269.667969 221.132812 266.199219 209.347656 C 264.859375 204.675781 264.277344 196.066406 264.441406 183.515625 C 264.625 169.144531 265.441406 159.644531 266.898438 155.003906 C 270.675781 143.113281 279.113281 137.25 292.222656 137.417969 C 308.671875 137.628906 321.828125 153.183594 322.058594 173.800781 C 322.3125 196.304688 320.546875 200.332031 318.519531 206.984375 "/>
<path style=" stroke:none;fill-rule:nonzero;fill:rgb(100%,41.999817%,7.499695%);fill-opacity:1;" d="M 251.667969 210.414062 C 251.667969 210.414062 255.742188 201.332031 246.367188 199.53125 C 235.152344 197.382812 232.980469 184.394531 235.078125 195.453125 C 236.359375 202.21875 235.53125 204.546875 228.085938 202.0625 C 220.636719 199.582031 217.441406 190.257812 222.429688 181.597656 C 232.011719 164.972656 215.734375 151.714844 215.734375 151.714844 C 215.734375 151.714844 216.558594 155.460938 215.550781 160.582031 C 213.296875 172.058594 204.03125 171.464844 196.625 179.050781 C 186.113281 189.824219 190.589844 197.886719 190.410156 197.886719 C 182.527344 197.886719 189.765625 179.234375 189.765625 179.234375 C 189.765625 179.234375 176.417969 185.269531 173.492188 198.984375 C 171.335938 209.09375 180.03125 209.605469 183.605469 210.585938 C 190.597656 212.496094 209.40625 214.277344 240.539062 212.242188 C 248.703125 211.710938 251.667969 210.414062 251.667969 210.414062 "/>
<path style=" stroke:none;fill-rule:nonzero;fill:rgb(100%,100%,100%);fill-opacity:1;" d="M 349.917969 216.5625 C 349.496094 217.648438 349.046875 218.714844 348.582031 219.765625 C 353.03125 232.527344 355.484375 246.242188 355.542969 260.539062 C 355.820312 329.113281 301.042969 384.929688 233.195312 385.203125 C 233.015625 385.207031 232.839844 385.203125 232.660156 385.203125 C 233.789062 386.71875 235.085938 388.507812 236.511719 390.480469 C 236.585938 390.582031 236.65625 390.679688 236.730469 390.78125 C 237.144531 390.785156 237.558594 390.792969 237.972656 390.792969 C 305.820312 390.519531 360.597656 334.703125 360.320312 266.128906 C 360.25 248.488281 356.539062 231.730469 349.917969 216.5625 "/>
<path style=" stroke:none;fill-rule:nonzero;fill:rgb(100%,100%,100%);fill-opacity:1;" d="M 184.382812 233.285156 C 187.902344 237.886719 189.601562 244.636719 189.488281 253.527344 L 188.5625 339.6875 C 200.007812 351.3125 215.855469 367.414062 223.972656 375.648438 L 225.730469 251.0625 C 225.800781 245.644531 228.105469 240.144531 232.648438 234.558594 C 237.191406 228.980469 243.203125 224.933594 250.6875 222.429688 L 249.835938 219.164062 L 165.355469 218.074219 L 164.867188 221.324219 C 174.351562 225.347656 180.859375 229.335938 184.382812 233.285156 "/>
<path style=" stroke:none;fill-rule:nonzero;fill:rgb(100%,100%,100%);fill-opacity:1;" d="M 217.675781 392.464844 C 216.710938 391.503906 202.210938 377.484375 188.300781 364.03125 L 188.066406 385.964844 C 187.878906 400.496094 180.332031 407.664062 165.4375 407.472656 C 158.878906 407.386719 152.566406 405.570312 146.507812 402.023438 C 140.441406 398.476562 137.375 394.53125 137.496094 390.191406 C 137.832031 378.160156 144.566406 374.652344 154.003906 373.152344 C 157.613281 372.582031 166.085938 372.1875 168.125 372.367188 L 169.953125 368.4375 L 116.28125 336.558594 C 116.28125 336.558594 113.019531 337.402344 112.820312 341 C 112.761719 342.085938 113.128906 343.675781 114.144531 346.292969 C 115.152344 348.90625 115.589844 350.6875 115.636719 351.84375 C 115.992188 360.804688 113.628906 362.9375 109.8125 370.152344 C 105.988281 377.375 104.054688 383.472656 103.988281 388.460938 C 103.839844 400.171875 109.59375 410.007812 121.265625 417.964844 C 132.933594 425.925781 148.003906 430.023438 166.484375 430.261719 C 198.726562 430.675781 217.382812 419.339844 222.453125 396.25 C 220.257812 394.648438 218.574219 393.355469 217.675781 392.464844 "/>
<path style=" stroke:none;fill-rule:nonzero;fill:rgb(100%,100%,100%);fill-opacity:1;" d="M 245.535156 404.863281 C 245.535156 404.863281 240.296875 397.886719 238.691406 395.695312 C 233.878906 389.117188 229.835938 383.265625 227.921875 381.363281 C 226.007812 379.464844 173.554688 326.089844 173.554688 326.089844 C 173.554688 326.089844 173.84375 325.363281 173.722656 324.53125 C 173.605469 323.703125 173.179688 323.351562 173.179688 323.351562 C 173.179688 323.351562 164.5625 314.859375 162.800781 313.046875 C 162.742188 312.980469 162.667969 312.941406 162.589844 312.90625 C 162.5625 312.867188 162.53125 312.828125 162.5 312.792969 C 161.542969 311.84375 157.742188 314.121094 154.007812 317.878906 C 150.3125 321.601562 148.074219 325.375 148.957031 326.375 C 148.980469 326.542969 149.035156 326.6875 149.148438 326.792969 C 150.976562 328.539062 159.527344 337.097656 159.527344 337.097656 C 159.527344 337.097656 159.882812 337.523438 160.714844 337.636719 C 161.542969 337.746094 162.269531 337.453125 162.269531 337.453125 C 162.269531 337.453125 216.046875 389.492188 217.960938 391.394531 C 219.875 393.296875 225.753906 397.296875 232.363281 402.066406 C 234.566406 403.65625 241.578125 408.847656 241.578125 408.847656 C 241.578125 408.847656 242.597656 409.140625 244.046875 408.226562 C 244.046875 408.226562 244.34375 407.980469 244.53125 407.839844 C 244.765625 407.554688 244.933594 407.335938 244.933594 407.335938 C 245.839844 405.882812 245.535156 404.863281 245.535156 404.863281 M 161.910156 336.351562 C 162.089844 336.34375 162.5 336.9375 162.5 336.9375 C 162.5 336.9375 160.328125 337.664062 160.019531 336.519531 C 159.707031 335.378906 163.640625 331.628906 163.640625 331.628906 C 161.113281 334.652344 161.726562 336.359375 161.910156 336.351562 M 165.578125 329.007812 L 154.515625 318.015625 C 154.472656 317.972656 154.476562 317.90625 154.527344 317.867188 C 154.527344 317.867188 154.800781 317.460938 155.71875 316.574219 C 156.632812 315.6875 157.085938 315.84375 157.085938 315.84375 C 157.136719 315.804688 157.210938 315.804688 157.253906 315.847656 L 168.320312 326.839844 C 168.363281 326.882812 168.355469 326.949219 168.308594 326.988281 C 168.308594 326.988281 168.238281 326.84375 167.261719 327.605469 C 166.578125 328.136719 166.230469 328.46875 165.75 329.011719 C 165.699219 329.050781 165.625 329.050781 165.578125 329.007812 M 165.964844 329.355469 C 165.964844 329.355469 167.410156 327.703125 168.515625 327.253906 L 169.351562 328.945312 L 168.214844 330.082031 Z M 224.21875 385.679688 L 169.132812 331.015625 C 168.773438 330.65625 168.496094 330.351562 168.519531 330.328125 L 169.609375 329.230469 C 169.632812 329.210938 169.941406 329.480469 170.300781 329.839844 L 225.386719 384.503906 C 225.746094 384.863281 226.023438 385.171875 226 385.191406 L 224.910156 386.289062 C 224.890625 386.3125 224.578125 386.039062 224.21875 385.679688 M 243.972656 407.875 C 242.902344 408.75 241.441406 408.582031 242.023438 408.445312 C 245.296875 407.703125 243.671875 405.570312 243.601562 405.496094 L 225.746094 386.324219 C 225.675781 386.25 225.628906 386.179688 225.640625 386.167969 L 226.269531 385.535156 C 226.28125 385.523438 226.347656 385.574219 226.417969 385.648438 L 244.277344 404.820312 C 244.347656 404.894531 245.160156 405.792969 245.148438 405.804688 C 245.148438 405.804688 245.042969 407 243.972656 407.875 "/>
<path style=" stroke:none;fill-rule:nonzero;fill:rgb(100%,100%,100%);fill-opacity:1;" d="M 151.605469 320.550781 C 152.308594 319.683594 153.113281 318.78125 154.007812 317.878906 C 155.503906 316.371094 157.007812 315.109375 158.339844 314.191406 C 149.886719 304.964844 144.039062 292.90625 140.6875 281.113281 C 138.722656 274.199219 137.589844 266.953125 137.941406 259.757812 C 138.082031 256.875 138.648438 253.835938 139.570312 251 C 140 249.675781 140.199219 249.21875 140.984375 247.738281 C 141.242188 247.25 141.53125 246.777344 141.832031 246.308594 C 141.914062 246.1875 142.128906 245.871094 142.179688 245.800781 C 142.445312 245.449219 142.726562 245.113281 143.011719 244.78125 C 143.140625 244.628906 143.28125 244.480469 143.417969 244.335938 C 143.539062 244.214844 143.722656 244.027344 143.792969 243.960938 C 143.988281 243.785156 144.882812 243.085938 144.976562 242.988281 C 145.410156 242.699219 145.851562 242.429688 146.300781 242.175781 C 146.34375 242.152344 146.371094 242.136719 146.40625 242.117188 C 146.726562 241.964844 147.050781 241.828125 147.378906 241.695312 C 147.726562 241.550781 148.085938 241.421875 148.441406 241.296875 C 147.988281 241.460938 149.082031 241.113281 149.140625 241.097656 C 149.894531 240.898438 150.660156 240.761719 151.433594 240.648438 C 151.042969 240.710938 152.132812 240.601562 152.144531 240.601562 C 152.546875 240.574219 152.945312 240.570312 153.347656 240.566406 C 153.742188 240.5625 154.140625 240.582031 154.539062 240.597656 C 154.476562 240.597656 155.261719 240.667969 155.320312 240.664062 C 161.605469 241.433594 167.132812 244.894531 171.933594 248.863281 C 177.964844 253.851562 183.304688 260.175781 187.449219 266.882812 L 187.589844 253.5 C 187.601562 252.730469 187.589844 251.980469 187.574219 251.246094 C 184.726562 248.019531 181.632812 245.027344 178.375 242.371094 C 172.9375 237.941406 166.507812 234.605469 159.457031 233.910156 C 152.117188 233.191406 144.40625 235.859375 138.90625 240.738281 C 128.375 250.085938 128.097656 265.582031 130.617188 278.40625 C 133.546875 293.304688 140.433594 308.148438 150.613281 319.476562 C 150.9375 319.839844 151.273438 320.195312 151.605469 320.550781 "/>
<path style=" stroke:none;fill-rule:nonzero;fill:rgb(100%,100%,100%);fill-opacity:1;" d="M 323.667969 327.621094 C 321.558594 324.421875 319.160156 322.28125 318.308594 322.84375 C 318.28125 322.863281 318.25 322.886719 318.226562 322.914062 C 318.160156 322.925781 318.101562 322.945312 318.046875 322.984375 C 316.472656 324.0625 308.816406 329.070312 308.816406 329.070312 C 308.816406 329.070312 308.449219 329.265625 308.226562 329.851562 C 308.007812 330.433594 308.097656 330.996094 308.097656 330.996094 C 308.097656 330.996094 261.230469 362.679688 259.527344 363.800781 C 257.824219 364.921875 253.929688 368.621094 249.355469 372.738281 C 247.828125 374.113281 242.878906 378.464844 242.878906 378.464844 C 242.878906 378.464844 242.496094 379.160156 242.917969 380.328125 C 242.917969 380.328125 243.003906 380.507812 243.132812 380.742188 C 243.246094 380.871094 243.417969 381.085938 243.417969 381.085938 C 244.328125 381.933594 245.117188 381.855469 245.117188 381.855469 C 245.117188 381.855469 251.066406 379.023438 252.933594 378.164062 C 258.519531 375.585938 263.453125 373.460938 265.15625 372.339844 C 266.859375 371.21875 314.476562 340.671875 314.476562 340.671875 C 314.476562 340.671875 314.957031 340.976562 315.578125 341.003906 C 316.203125 341.03125 316.53125 340.769531 316.53125 340.769531 C 316.53125 340.769531 324.148438 335.707031 325.761719 334.6875 C 325.863281 334.625 325.925781 334.527344 325.96875 334.410156 C 326.777344 333.804688 325.757812 330.789062 323.667969 327.621094 M 260.308594 367.664062 L 244.1875 379.171875 C 244.125 379.21875 242.59375 380.542969 244.859375 381.507812 C 245.261719 381.679688 244.171875 381.613281 243.53125 380.839844 C 242.894531 380.070312 243.011719 379.195312 243.011719 379.195312 C 243.003906 379.183594 243.742188 378.640625 243.804688 378.597656 L 259.925781 367.089844 C 259.988281 367.042969 260.042969 367.015625 260.050781 367.027344 L 260.410156 367.5625 C 260.414062 367.574219 260.371094 367.621094 260.308594 367.664062 M 310.519531 335.128906 L 261.523438 367.398438 C 261.203125 367.609375 260.933594 367.765625 260.917969 367.75 L 260.304688 366.8125 C 260.292969 366.792969 260.542969 366.609375 260.863281 366.398438 L 309.859375 334.125 C 310.179688 333.914062 310.449219 333.757812 310.460938 333.777344 L 311.078125 334.710938 C 311.089844 334.730469 310.839844 334.917969 310.519531 335.128906 M 311.34375 334.574219 L 310.695312 333.605469 L 311.578125 332.492188 C 312.3125 332.960938 313.097656 334.34375 313.097656 334.34375 Z M 316.265625 340.292969 C 315.851562 341.074219 314.390625 340.269531 314.390625 340.269531 C 314.390625 340.269531 314.785156 339.890625 314.914062 339.921875 C 315.046875 339.953125 315.769531 338.800781 314.421875 336.285156 C 314.421875 336.285156 316.679688 339.507812 316.265625 340.292969 M 323.277344 327.652344 L 313.433594 334.140625 C 313.394531 334.167969 313.339844 334.160156 313.308594 334.125 C 313.046875 333.667969 312.847656 333.382812 312.4375 332.910156 C 311.851562 332.234375 311.777344 332.328125 311.777344 332.328125 C 311.746094 332.292969 311.75 332.246094 311.789062 332.21875 L 321.632812 325.730469 C 321.671875 325.707031 321.730469 325.714844 321.757812 325.75 C 321.757812 325.75 322.113281 325.695312 322.636719 326.453125 C 323.160156 327.214844 323.292969 327.542969 323.292969 327.542969 C 323.324219 327.578125 323.316406 327.628906 323.277344 327.652344 "/>
<path style=" stroke:none;fill-rule:nonzero;fill:rgb(100%,100%,100%);fill-opacity:1;" d="M 343.941406 285.320312 C 339.128906 278.570312 330.886719 274.496094 323.339844 271.648438 C 315.875 268.832031 307.820312 268.753906 300.0625 270.191406 C 287.839844 272.457031 276.222656 278.285156 265.8125 285.078125 C 265.777344 288.03125 265.75 290.742188 265.726562 293.042969 C 273.273438 287.21875 281.847656 282.410156 290.578125 278.640625 C 297.671875 275.574219 305.242188 273.234375 312.996094 272.804688 C 320.449219 272.390625 326.90625 274.304688 332.828125 278.785156 C 350.261719 291.972656 333.632812 313.179688 320.605469 323.902344 C 321.554688 324.769531 322.644531 326.066406 323.667969 327.617188 C 324.046875 328.191406 324.386719 328.757812 324.691406 329.308594 C 326.273438 328.199219 327.746094 326.734375 329.128906 325.507812 C 332.855469 322.214844 336.324219 318.617188 339.378906 314.691406 C 345.863281 306.359375 350.804688 294.9375 343.941406 285.320312 "/>
</g>
</svg>